<svg width="20" height="20" viewBox="0 0 20 20" fill="#EFEFEF" xmlns="http://www.w3.org/2000/svg">
<path d="M5.41601 0.503729C2.28181 1.00507 0.134014 4.04169 0.618189 7.28703C1.10236 10.5324 4.0352 12.7577 7.1694 12.2564C10.3036 11.755 12.4525 8.7168 11.9684 5.47146C11.4842 2.22612 8.55022 0.00238544 5.41601 0.503729ZM5.51499 1.16717C8.29505 0.72248 10.8968 2.69554 11.3263 5.57417C11.7558 8.45281 9.85027 11.1468 7.07021 11.5915C4.29016 12.0362 1.68838 10.0632 1.25891 7.18454C0.829448 4.3059 2.73494 1.61187 5.51499 1.16717Z" fill="white"/>
<path d="M19.7418 17.3846C16.3177 14.9473 14.2736 13.39 11.7274 10.3642C10.9875 9.38409 11.0853 9.46458 10.2908 10.337C9.36428 11.2096 9.45156 11.2594 10.3045 11.8571C13.054 13.7864 15.5375 16.6434 17.7091 19.4886C18.7069 20.3695 20.5988 18.5563 19.7418 17.3846V17.3846Z" fill="white"/>
</svg>
